<svg width="28" height="18" viewBox="0 0 28 18" fill="none" xmlns="http://www.w3.org/2000/svg">
<path d="M1.83607 8.37363L3.60656 0H12.7869L11.3443 6.72527C10.5574 10.4176 8.93989 13.2308 6.4918 15.1648C4.78689 16.5275 2.62295 17.4725 0 18L0.655738 14.6374C2.71038 14.022 4.24044 13.1209 5.2459 11.9341C5.94536 11.0989 6.4918 9.91209 6.88525 8.37363H1.83607ZM17.0492 8.37363L18.8197 0H28L26.5574 6.72527C25.7705 10.4176 24.153 13.2308 21.7049 15.1648C20 16.5275 17.8361 17.4725 15.2131 18L15.8689 14.6374C17.9235 14.022 19.4536 13.1209 20.459 11.9341C21.1585 11.0989 21.7049 9.91209 22.0984 8.37363H17.0492Z" fill="#242424"/>
</svg>
