<svg width="16" height="16" viewBox="0 0 16 16" fill="none" xmlns="http://www.w3.org/2000/svg">
<path d="M2.18318 10.1974C1.61656 9.46131 1.33325 9.09324 1.33325 8.00033C1.33325 6.90741 1.61656 6.53934 2.18318 5.80321C3.31456 4.33336 5.21199 2.66699 7.99992 2.66699C10.7878 2.66699 12.6853 4.33336 13.8167 5.80321C14.3833 6.53934 14.6666 6.90741 14.6666 8.00033C14.6666 9.09324 14.3833 9.46131 13.8167 10.1974C12.6853 11.6673 10.7878 13.3337 7.99992 13.3337C5.21199 13.3337 3.31456 11.6673 2.18318 10.1974Z" stroke="#9F9999"/>
<path d="M10 8C10 9.10457 9.10457 10 8 10C6.89543 10 6 9.10457 6 8C6 6.89543 6.89543 6 8 6C9.10457 6 10 6.89543 10 8Z" stroke="#9F9999"/>
</svg>
