<svg width="21" height="21" viewBox="0 0 21 21" fill="none" xmlns="http://www.w3.org/2000/svg">
<path fill-rule="evenodd" clip-rule="evenodd" d="M11 19.04L11.631 18.329C12.347 17.509 12.991 16.731 13.564 15.991L14.037 15.367C16.012 12.706 17 10.594 17 9.033C17 5.701 14.314 3 11 3C7.686 3 5 5.701 5 9.033C5 10.594 5.988 12.706 7.963 15.367L8.436 15.991C9.25344 17.0384 10.1087 18.0547 11 19.04Z" stroke="#242424" stroke-linecap="round" stroke-linejoin="round"/>
<path d="M11 11.5C12.3807 11.5 13.5 10.3807 13.5 9C13.5 7.61929 12.3807 6.5 11 6.5C9.61929 6.5 8.5 7.61929 8.5 9C8.5 10.3807 9.61929 11.5 11 11.5Z" stroke="#242424" stroke-linecap="round" stroke-linejoin="round"/>
</svg>
