<svg width="14" height="14" viewBox="0 0 14 14" fill="none" xmlns="http://www.w3.org/2000/svg">
<g clip-path="url(#clip0_262_2207)">
<path fill-rule="evenodd" clip-rule="evenodd" d="M7.00033 1.60449C4.02029 1.60449 1.60449 4.02029 1.60449 7.00033C1.60449 7.86428 1.80722 8.67962 2.16729 9.40255C2.31181 9.6927 2.36746 10.0396 2.27628 10.3804L1.92884 11.679C1.86503 11.9174 2.08321 12.1356 2.3217 12.0718L3.62022 11.7244C3.961 11.6332 4.30795 11.6888 4.59811 11.8334C5.32103 12.1934 6.13638 12.3962 7.00033 12.3962C9.98036 12.3962 12.3962 9.98036 12.3962 7.00033C12.3962 4.02029 9.98036 1.60449 7.00033 1.60449ZM0.729492 7.00033C0.729492 3.53704 3.53704 0.729492 7.00033 0.729492C10.4636 0.729492 13.2712 3.53704 13.2712 7.00033C13.2712 10.4636 10.4636 13.2712 7.00033 13.2712C5.99798 13.2712 5.04938 13.0357 4.208 12.6166C4.08244 12.554 3.95424 12.5408 3.84638 12.5696L2.54786 12.9171C1.65896 13.1549 0.845735 12.3417 1.08357 11.4528L1.43101 10.1543C1.45987 10.0464 1.4466 9.91821 1.38407 9.79266C0.964988 8.95127 0.729492 8.00267 0.729492 7.00033ZM4.22949 6.12533C4.22949 5.8837 4.42537 5.68783 4.66699 5.68783H9.33366C9.57528 5.68783 9.77116 5.8837 9.77116 6.12533C9.77116 6.36695 9.57528 6.56283 9.33366 6.56283H4.66699C4.42537 6.56283 4.22949 6.36695 4.22949 6.12533ZM4.22949 8.16699C4.22949 7.92537 4.42537 7.72949 4.66699 7.72949H7.87533C8.11695 7.72949 8.31283 7.92537 8.31283 8.16699C8.31283 8.40862 8.11695 8.60449 7.87533 8.60449H4.66699C4.42537 8.60449 4.22949 8.40862 4.22949 8.16699Z" fill="#989898"/>
</g>
<defs>
<clipPath id="clip0_262_2207">
<rect width="14" height="14" fill="white"/>
</clipPath>
</defs>
</svg>
