<svg width="16" height="16" viewBox="0 0 16 16" fill="none" xmlns="http://www.w3.org/2000/svg">
<path d="M12.3418 12.2062L12.2221 11.7208L12.3418 12.2062ZM12.3418 3.79253L12.4616 3.30708L12.4616 3.30708L12.3418 3.79253ZM12.3605 12.3599C9.95226 14.7681 6.04774 14.7681 3.63951 12.3599L2.9324 13.067C5.73116 15.8657 10.2688 15.8657 13.0676 13.067L12.3605 12.3599ZM3.63951 12.3599C1.23127 9.95164 1.23127 6.04712 3.63951 3.63889L2.9324 2.93178C0.133644 5.73054 0.133644 10.2682 2.9324 13.067L3.63951 12.3599ZM3.63951 3.63889C6.04774 1.23065 9.95226 1.23065 12.3605 3.63889L13.0676 2.93178C10.2688 0.133023 5.73116 0.133023 2.9324 2.93178L3.63951 3.63889ZM8.58926 10.71C7.09225 9.21295 7.09225 6.78581 8.58926 5.2888L7.88215 4.5817C5.99461 6.46923 5.99461 9.52953 7.88215 11.4171L8.58926 10.71ZM12.2221 11.7208C10.9604 12.032 9.57363 11.6943 8.58926 10.71L7.88215 11.4171C9.12426 12.6592 10.8741 13.0833 12.4616 12.6917L12.2221 11.7208ZM8.58926 5.2888C9.57363 4.30443 10.9603 3.96673 12.2221 4.27797L12.4616 3.30708C10.8741 2.91547 9.12426 3.33959 7.88215 4.5817L8.58926 5.2888ZM12.3605 3.63889C12.3188 3.59715 12.2887 3.52942 12.2901 3.45696C12.2913 3.39558 12.314 3.35897 12.3243 3.34537C12.337 3.32871 12.3806 3.2871 12.4616 3.30708L12.2221 4.27797C12.6026 4.37183 12.9413 4.18569 13.1197 3.95148C13.3053 3.70802 13.4054 3.2696 13.0676 2.93178L12.3605 3.63889ZM12.4616 12.6917C12.3806 12.7117 12.337 12.6701 12.3243 12.6534C12.314 12.6398 12.2913 12.6032 12.2901 12.5418C12.2887 12.4693 12.3188 12.4016 12.3605 12.3599L13.0676 13.067C13.4054 12.7292 13.3052 12.2907 13.1197 12.0473C12.9413 11.8131 12.6026 11.6269 12.2221 11.7208L12.4616 12.6917Z" fill="white"/>
</svg>
