<svg width="16" height="17" viewBox="0 0 16 17" fill="none" xmlns="http://www.w3.org/2000/svg">
<g clip-path="url(#clip0_596_1897)">
<path d="M12.6666 8.5H13.9999C13.9999 5.18667 11.3133 2.5 7.99994 2.5V3.83333C10.5799 3.83333 12.6666 5.92 12.6666 8.5ZM9.99994 8.5H11.3333C11.3333 6.66 9.83994 5.16667 7.99994 5.16667V6.5C9.1066 6.5 9.99994 7.39333 9.99994 8.5ZM8.8066 12.08C6.91994 11.12 5.37327 9.58 4.41327 7.68667L6.09994 6L5.69327 2.5H2.01994C1.63327 9.28667 7.21327 14.8667 13.9999 14.48V10.8067L10.4866 10.4L8.8066 12.08Z" fill="#242424"/>
</g>
<defs>
<clipPath id="clip0_596_1897">
<rect width="16" height="16" fill="white" transform="translate(0 0.5)"/>
</clipPath>
</defs>
</svg>
