<svg width="15" height="14" viewBox="0 0 15 14" fill="none" xmlns="http://www.w3.org/2000/svg">
<path fill-rule="evenodd" clip-rule="evenodd" d="M11.1733 0.499859L13.5709 2.89738C14.2411 3.53594 14.2685 4.59636 13.6321 5.26866L5.75703 13.1437C5.47181 13.4266 5.09797 13.6027 4.69827 13.6425L1.04948 13.975H0.970732C0.738152 13.9763 0.514606 13.885 0.349475 13.7212C0.164881 13.5373 0.0718578 13.2807 0.0957228 13.0212L0.471977 9.37245C0.511794 8.97275 0.687899 8.59891 0.970732 8.31369L8.84582 0.438608C9.52467 -0.134916 10.5256 -0.108576 11.1733 0.499859ZM8.25122 3.47463L10.5962 5.81965L12.3463 4.11338L9.95749 1.72461L8.25122 3.47463Z" fill="#242424"/>
</svg>
