<svg width="105" height="51" viewBox="0 0 105 51" fill="none" xmlns="http://www.w3.org/2000/svg">
<ellipse cx="101" cy="25.3798" rx="4" ry="3.99313" fill="white"/>
<ellipse cx="83" cy="25.3798" rx="4" ry="3.99313" fill="white"/>
<ellipse cx="65" cy="25.3798" rx="4" ry="3.99313" fill="white"/>
<path opacity="0.1" d="M48 25.3794C48 38.0602 37.7025 48.3399 25 48.3399C12.2975 48.3399 2 38.0602 2 25.3794C2 12.6987 12.2975 2.41895 25 2.41895C37.7025 2.41895 48 12.6987 48 25.3794ZM3.14795 25.3794C3.14795 37.4272 12.9314 47.1939 25 47.1939C37.0686 47.1939 46.852 37.4272 46.852 25.3794C46.852 13.3316 37.0686 3.56492 25 3.56492C12.9314 3.56492 3.14795 13.3316 3.14795 25.3794Z" fill="white"/>
<path d="M25 0.422852C20.0555 0.422852 15.222 1.88656 11.1107 4.62887C6.99952 7.37119 3.7952 11.2689 1.90301 15.8292C0.0108209 20.3896 -0.484263 25.4076 0.480368 30.2488C1.445 35.09 3.82602 39.5369 7.32233 43.0272L10.8579 39.4977C8.06081 36.7055 6.156 33.148 5.38429 29.275C4.61259 25.402 5.00866 21.3876 6.52241 17.7394C8.03616 14.0911 10.5996 10.9729 13.8886 8.77908C17.1776 6.58522 21.0444 5.41426 25 5.41426V0.422852Z" fill="#F7931E"/>
<ellipse cx="25" cy="25.3793" rx="6" ry="5.98969" fill="white"/>
</svg>
