<svg width="14" height="14" viewBox="0 0 14 14" fill="none" xmlns="http://www.w3.org/2000/svg">
<path d="M5.24992 7.00033C5.24992 7.80574 4.597 8.45866 3.79159 8.45866C2.98617 8.45866 2.33325 7.80574 2.33325 7.00033C2.33325 6.19491 2.98617 5.54199 3.79159 5.54199C4.597 5.54199 5.24992 6.19491 5.24992 7.00033Z" stroke="#989898"/>
<path d="M8.16667 3.79199L5.25 5.83366" stroke="#989898" stroke-linecap="round"/>
<path d="M8.16667 10.208L5.25 8.16634" stroke="#989898" stroke-linecap="round"/>
<path d="M11.0834 10.7913C11.0834 11.5968 10.4305 12.2497 9.62508 12.2497C8.81967 12.2497 8.16675 11.5968 8.16675 10.7913C8.16675 9.98593 8.81967 9.33301 9.62508 9.33301C10.4305 9.33301 11.0834 9.98593 11.0834 10.7913Z" stroke="#989898"/>
<path d="M11.0834 3.20833C11.0834 4.01375 10.4305 4.66667 9.62508 4.66667C8.81967 4.66667 8.16675 4.01375 8.16675 3.20833C8.16675 2.40292 8.81967 1.75 9.62508 1.75C10.4305 1.75 11.0834 2.40292 11.0834 3.20833Z" stroke="#989898"/>
</svg>
